<svg width="900" height="900" viewBox="0 0 900 900" fill="none" xmlns="http://www.w3.org/2000/svg">
<path d="M205.206 581.578C199.425 581.578 195.753 578.234 195.753 573.219V558.453H200.472V572.797C200.472 575.719 202.175 577.578 205.206 577.578C208.237 577.578 209.925 575.719 209.925 572.797V558.453H214.644V573.219C214.644 578.219 211.019 581.578 205.206 581.578ZM218.512 581V558.453H222.45L232.856 572.812H233.106V558.453H237.622V581H233.716L223.278 566.578H223.028V581H218.512ZM241.506 581V558.453H246.225V581H241.506ZM256 581L248.484 558.453H253.781L258.766 575.75H259.047L264.016 558.453H269.328L261.812 581H256ZM271.587 581V558.453H286.525V562.344H276.306V567.781H285.947V571.406H276.306V577.109H286.525V581H271.587ZM289.894 581V558.453H299.284C304.409 558.453 307.347 561.188 307.347 565.625V565.656C307.347 568.547 305.847 571.031 303.269 572.047L308.019 581H302.675L298.472 572.75H294.612V581H289.894ZM294.612 569.312H298.769C301.128 569.312 302.519 567.969 302.519 565.75V565.719C302.519 563.547 301.066 562.141 298.706 562.141H294.612V569.312ZM318.575 581.578C313.184 581.578 309.778 579 309.512 575L309.497 574.75H314.044L314.059 574.906C314.231 576.594 316.059 577.734 318.7 577.734C321.216 577.734 322.95 576.531 322.95 574.797V574.781C322.95 573.297 321.841 572.469 319.044 571.891L316.669 571.406C311.981 570.453 309.966 568.266 309.966 564.844V564.828C309.966 560.641 313.559 557.875 318.559 557.875C323.825 557.875 326.919 560.656 327.216 564.422L327.231 564.625H322.794L322.762 564.438C322.497 562.828 320.934 561.703 318.559 561.703C316.231 561.719 314.684 562.781 314.684 564.469V564.484C314.684 565.953 315.778 566.828 318.434 567.375L320.825 567.859C325.591 568.844 327.669 570.75 327.669 574.266V574.281C327.669 578.75 324.2 581.578 318.575 581.578ZM330.537 581V558.453H335.256V581H330.537ZM344.594 581V562.344H337.828V558.453H356.078V562.344H349.312V581H344.594ZM364.884 581V572.578L357.041 558.453H362.15L367.119 567.938H367.4L372.353 558.453H377.462L369.603 572.578V581H364.884ZM386.356 581V558.453H391.762L397.997 574.953H398.278L404.497 558.453H409.903V581H405.7V565.656H405.387L399.606 581H396.653L390.872 565.656H390.559V581H386.356ZM412.178 581L420.006 558.453H425.553L433.397 581H428.428L426.756 575.531H418.803L417.131 581H412.178ZM422.647 562.953L419.881 572H425.678L422.928 562.953H422.647ZM435.625 581V558.453H440.344V568.578H440.625L448.953 558.453H454.203L445.984 568.328L454.781 581H449.125L442.578 571.422L440.344 574.109V581H435.625ZM456.744 581V558.453H471.681V562.344H461.462V567.781H471.103V571.406H461.462V577.109H471.681V581H456.744ZM484.487 581.578C478.706 581.578 475.034 578.234 475.034 573.219V558.453H479.753V572.797C479.753 575.719 481.456 577.578 484.487 577.578C487.519 577.578 489.206 575.719 489.206 572.797V558.453H493.925V573.219C493.925 578.219 490.3 581.578 484.487 581.578ZM505.856 581.578C500.466 581.578 497.059 579 496.794 575L496.778 574.75H501.325L501.341 574.906C501.512 576.594 503.341 577.734 505.981 577.734C508.497 577.734 510.231 576.531 510.231 574.797V574.781C510.231 573.297 509.122 572.469 506.325 571.891L503.95 571.406C499.262 570.453 497.247 568.266 497.247 564.844V564.828C497.247 560.641 500.841 557.875 505.841 557.875C511.106 557.875 514.2 560.656 514.497 564.422L514.512 564.625H510.075L510.044 564.438C509.778 562.828 508.216 561.703 505.841 561.703C503.512 561.719 501.966 562.781 501.966 564.469V564.484C501.966 565.953 503.059 566.828 505.716 567.375L508.106 567.859C512.872 568.844 514.95 570.75 514.95 574.266V574.281C514.95 578.75 511.481 581.578 505.856 581.578ZM534.047 581.578C527.516 581.578 523.469 577.047 523.469 569.734V569.703C523.469 562.391 527.5 557.875 534.047 557.875C539.391 557.875 543.391 561.281 543.828 566.047V566.234H539.234V566.125C538.75 563.594 536.734 561.875 534.047 561.875C530.5 561.875 528.297 564.859 528.297 569.703V569.734C528.297 574.578 530.5 577.578 534.062 577.578C536.766 577.578 538.719 576 539.219 573.594L539.25 573.469H543.844L543.828 573.641C543.344 578.359 539.484 581.578 534.047 581.578ZM546.587 581V558.453H551.306V567.609H561.462V558.453H566.181V581H561.462V571.5H551.306V581H546.587ZM568.441 581L576.269 558.453H581.816L589.659 581H584.691L583.019 575.531H575.066L573.394 581H568.441ZM578.909 562.953L576.144 572H581.941L579.191 562.953H578.909ZM591.887 581V558.453H596.606V577.109H606.637V581H591.887ZM609.319 581V558.453H614.037V577.109H624.069V581H609.319ZM626.75 581V558.453H641.688V562.344H631.469V567.781H641.109V571.406H631.469V577.109H641.688V581H626.75ZM645.056 581V558.453H648.994L659.4 572.812H659.65V558.453H664.166V581H660.259L649.822 566.578H649.572V581H645.056ZM677.862 581.578C671.159 581.578 667.05 577.062 667.05 569.719V569.688C667.05 562.453 671.191 557.875 677.753 557.875C683.081 557.875 686.972 560.938 687.644 565.438L687.675 565.594H682.987L682.956 565.438C682.316 563.203 680.394 561.875 677.753 561.875C674.112 561.875 671.862 564.844 671.862 569.641V569.672C671.862 574.562 674.222 577.578 677.941 577.578C681.034 577.578 683.159 575.688 683.253 572.844L683.269 572.422H678.394V568.984H687.862V571.844C687.862 577.828 684.019 581.578 677.862 581.578ZM690.794 581V558.453H705.731V562.344H695.512V567.781H705.153V571.406H695.512V577.109H705.731V581H690.794Z" fill="white"/>
<path d="M328 311H148C142.48 311 138 315.48 138 321V411C138 466.22 182.78 511 238 511C293.22 511 338 466.22 338 411V321C338 315.48 333.52 311 328 311Z" fill="white"/>
<path d="M762 501L762 321C762 315.48 757.52 311 752 311L662 311C606.78 311 562 355.78 562 411C562 466.22 606.78 511 662 511L752 511C757.52 511 762 506.52 762 501Z" fill="white"/>
<path d="M540 311C490.3 311 450 341.28 450 391C450 341.28 409.7 311 360 311C354.48 311 350 315.48 350 321V501C350 506.52 354.48 511 360 511H540C545.52 511 550 506.52 550 501V321C550 315.48 545.52 311 540 311Z" fill="white"/>
</svg>
